<svg xmlns="http://www.w3.org/2000/svg" width="523.2" height="230" viewBox="0 0 523.2 230" role="img">
  <text x="24" y="71" text-anchor="start" font-family="sans-serif" font-size="13" font-weight="600" fill="#2563eb">main</text>
  <line x1="106.6" y1="66" x2="452.9" y2="66" stroke="#2563eb" stroke-width="2" fill="none"/>
  <text x="24" y="163" text-anchor="start" font-family="sans-serif" font-size="13" font-weight="600" fill="#16a34a">develop</text>
  <line x1="146.6" y1="158" x2="246.6" y2="158" stroke="#16a34a" stroke-width="2" fill="none"/>
  <rect x="137.6" y="57" width="18" height="18" rx="9" fill="#2563eb" stroke="#2563eb" stroke-width="1.5"/>
  <text x="146.6" y="48" text-anchor="middle" font-family="sans-serif" font-size="11" font-weight="400" fill="#7c3aed">v1.0</text>
  <text x="146.6" y="93" text-anchor="middle" font-family="sans-serif" font-size="12" font-weight="400" fill="#111827">base</text>
  <line x1="146.6" y1="66" x2="246.6" y2="158" stroke="#16a34a" stroke-width="2" fill="none"/>
  <rect x="234.6" y="148" width="24" height="20" rx="2" fill="#16a34a" stroke="#16a34a" stroke-width="1.5"/>
  <text x="246.6" y="185" text-anchor="middle" font-family="sans-serif" font-size="12" font-weight="400" fill="#111827">feature</text>
  <line x1="146.6" y1="66" x2="346.6" y2="66" stroke="#2563eb" stroke-width="2" fill="none"/>
  <rect x="337.6" y="57" width="18" height="18" rx="9" fill="#2563eb" stroke="#2563eb" stroke-width="1.5"/>
  <line x1="341.6" y1="61" x2="351.6" y2="71" stroke="#ffffff" stroke-width="2" fill="none"/>
  <line x1="351.6" y1="61" x2="341.6" y2="71" stroke="#ffffff" stroke-width="2" fill="none"/>
  <text x="346.6" y="93" text-anchor="middle" font-family="sans-serif" font-size="12" font-weight="400" fill="#111827">release</text>
  <line x1="346.6" y1="66" x2="452.9" y2="66" stroke="#2563eb" stroke-width="2" fill="none"/>
  <line x1="246.6" y1="158" x2="452.9" y2="66" stroke="#2563eb" stroke-width="2" fill="none"/>
  <rect x="443.9" y="57" width="18" height="18" rx="9" fill="#2563eb" stroke="#2563eb" stroke-width="1.5"/>
  <rect x="447.9" y="61" width="10" height="10" rx="5" fill="#ffffff" stroke="#ffffff" stroke-width="1"/>
  <text x="452.9" y="48" text-anchor="middle" font-family="sans-serif" font-size="11" font-weight="400" fill="#7c3aed">v2 &amp; stable</text>
  <text x="452.9" y="93" text-anchor="middle" font-family="sans-serif" font-size="12" font-weight="400" fill="#111827">merge</text>
</svg>
