<svg xmlns="http://www.w3.org/2000/svg" width="485" height="180" viewBox="0 0 485 180" role="img">
  <text x="72" y="45.26" text-anchor="end" font-family="sans-serif" font-size="13" font-weight="600" fill="#111827">auth</text>
  <rect x="88" y="24" width="63" height="31.6" rx="0" fill="#ffffff" stroke="#334155" stroke-width="1.5"/>
  <text x="119.5" y="45.26" text-anchor="middle" font-family="sans-serif" font-size="13" font-weight="400" fill="#111827">token</text>
  <rect x="185" y="24" width="78.6" height="31.6" rx="15.8" fill="#e2e8f0" stroke="#334155" stroke-width="1.5"/>
  <text x="224.3" y="45.26" text-anchor="middle" font-family="sans-serif" font-size="13" font-weight="400" fill="#111827">session</text>
  <line x1="169" y1="39.8" x2="185" y2="39.8" stroke="#475569" stroke-width="1.5" fill="none"/>
  <line x1="263.6" y1="39.8" x2="275.6" y2="39.8" stroke="#475569" stroke-width="1.5" fill="none"/>
  <rect x="185" y="89.6" width="78.6" height="31.6" rx="0" fill="#ffffff" stroke="#334155" stroke-width="1.5"/>
  <text x="224.3" y="110.86" text-anchor="middle" font-family="sans-serif" font-size="13" font-weight="400" fill="#111827">refresh</text>
  <polyline points="185,105.4 185,79.6 263.6,79.6 263.6,105.4" stroke="#475569" stroke-width="1.5" fill="none"/>
  <line x1="169" y1="105.4" x2="185" y2="105.4" stroke="#475569" stroke-width="1.5" fill="none"/>
  <line x1="263.6" y1="105.4" x2="275.6" y2="105.4" stroke="#475569" stroke-width="1.5" fill="none"/>
  <line x1="169" y1="39.8" x2="169" y2="105.4" stroke="#475569" stroke-width="1.5" fill="none"/>
  <line x1="275.6" y1="39.8" x2="275.6" y2="105.4" stroke="#475569" stroke-width="1.5" fill="none"/>
  <line x1="151" y1="39.8" x2="169" y2="39.8" stroke="#475569" stroke-width="1.5" fill="none"/>
  <rect x="293.6" y="24" width="86.4" height="31.6" rx="0" fill="#ffffff" stroke="#334155" stroke-width="1.5"/>
  <text x="336.8" y="45.26" text-anchor="middle" font-family="sans-serif" font-size="13" font-weight="400" fill="#111827">validate</text>
  <rect x="398" y="24" width="63" height="31.6" rx="0" fill="#ffffff" stroke="#334155" stroke-width="1.5"/>
  <text x="429.5" y="45.26" text-anchor="middle" font-family="sans-serif" font-size="13" font-weight="400" fill="#111827">store</text>
  <line x1="380" y1="39.8" x2="398" y2="39.8" stroke="#475569" stroke-width="1.5" fill="none"/>
  <line x1="275.6" y1="39.8" x2="293.6" y2="39.8" stroke="#475569" stroke-width="1.5" fill="none"/>
</svg>
